<?xml version="1.0" encoding="UTF-8"?>
<svg width="27px" height="27px" viewBox="0 0 27 27" version="1.1" xmlns="http://www.w3.org/2000/svg" xmlns:xlink="http://www.w3.org/1999/xlink">
    <!-- Generator: Sketch 45.2 (43514) - http://www.bohemiancoding.com/sketch -->
    <title>Group</title>
    <desc>Created with Sketch.</desc>
    <defs></defs>
    <g id="Page-1" stroke="none" stroke-width="1" fill="none" fill-rule="evenodd">
        <g id="Desktop-HD" transform="translate(-1164.000000, -40.000000)" stroke="#FFFFFF" stroke-width="1.5" fill="#FFFFFF" fill-rule="nonzero">
            <g id="Group" transform="translate(1165.000000, 41.000000)">
                <path d="M12.5,0 C5.60766129,0 0,5.60766129 0,12.5 C0,19.3923387 5.60766129,25 12.5,25 C19.3923387,25 25,19.3923387 25,12.5 C25,5.60766129 19.3923387,0 12.5,0 Z M0.806451613,12.5 C0.806451613,6.05201613 6.05201613,0.806451613 12.5,0.806451613 C18.9479839,0.806451613 24.1935484,6.05201613 24.1935484,12.5 C24.1935484,15.4798387 23.0717742,18.2012097 21.2302419,20.2685484 C19.7483871,18.0629032 17.5302419,16.5568548 14.9987903,15.9854839 C17.0891129,15.0318548 18.5483871,12.9274194 18.5483871,10.483871 C18.5483871,7.14879032 15.8350806,4.43548387 12.5,4.43548387 C9.16491935,4.43548387 6.4516129,7.14879032 6.4516129,10.483871 C6.4516129,12.983871 7.9766129,15.1346774 10.1447581,16.0548387 C7.63306452,16.7044355 5.41975806,18.2931452 4.00766129,20.5262097 C2.02580645,18.4302419 0.806451613,15.6056452 0.806451613,12.5 Z M12.5,15.7258065 C9.60967742,15.7258065 7.25806452,13.3741935 7.25806452,10.483871 C7.25806452,7.59354839 9.60967742,5.24193548 12.5,5.24193548 C15.3903226,5.24193548 17.7419355,7.59354839 17.7419355,10.483871 C17.7419355,13.3741935 15.3903226,15.7258065 12.5,15.7258065 Z M4.59475806,21.1072581 C6.30645161,18.2826613 9.39556452,16.5322581 12.7016129,16.5322581 C15.9528226,16.5322581 18.9012097,18.1487903 20.6572581,20.8669355 C18.5487903,22.9233871 15.6705645,24.1935484 12.5,24.1935484 C9.45443548,24.1935484 6.67782258,23.0221774 4.59475806,21.1072581 Z" id="Shape"></path>
            </g>
        </g>
    </g>
</svg>