<?xml version="1.0" encoding="utf-8"?>
<!-- Generator: Adobe Illustrator 19.0.0, SVG Export Plug-In . SVG Version: 6.00 Build 0)  -->
<svg version="1.1" id="Layer_1" xmlns="http://www.w3.org/2000/svg" xmlns:xlink="http://www.w3.org/1999/xlink" x="0px" y="0px"
	 viewBox="0 0 50 50" style="enable-background:new 0 0 50 50;" xml:space="preserve">
<style type="text/css">
	.st0{fill:#6F6F6F;}
</style>
<g id="Page-1_1_">
	<g id="Home-Page_1_" transform="translate(-798.000000, -3274.000000)">
		<g id="Group-4_1_" transform="translate(250.000000, 3241.000000)">
			<g id="Group-12" transform="translate(540.000000, 25.000000)">
				<g id="Group-3" transform="translate(8.800000, 8.000000)">
					<path id="Shape_11_" class="st0" d="M21.3,19.9c-1.2,0-2.2,1-2.2,2.2c0,1.2,1,2.2,2.2,2.2c1.2,0,2.2-1,2.2-2.2
						C23.5,20.9,22.5,19.9,21.3,19.9z M21.3,21.4c0.4,0,0.7,0.3,0.7,0.7s-0.3,0.7-0.7,0.7c-0.4,0-0.7-0.3-0.7-0.7
						C20.6,21.8,20.9,21.4,21.3,21.4z"/>
					<path id="Shape_10_" class="st0" d="M28.4,19.9c-1.2,0-2.2,1-2.2,2.2c0,1.2,1,2.2,2.2,2.2c1.2,0,2.2-1,2.2-2.2
						C30.5,20.9,29.6,19.9,28.4,19.9L28.4,19.9z M28.4,21.4c0.4,0,0.7,0.3,0.7,0.7c0,0.4-0.3,0.7-0.7,0.7c-0.4,0-0.7-0.3-0.7-0.7
						C27.6,21.8,28,21.4,28.4,21.4z"/>
					<path id="Shape_9_" class="st0" d="M24.8,12.9c-2.1,0-4.1,0.5-5.9,1.7c-2.4,0.4-4.3,1.3-5.7,2.3c-1.4,1-2.3,2-2.7,2.7
						C9.7,20.7,9,22.7,9,24.8c0,2.2,0.8,4.6,3,6c0.1,0.1,0.2,0.1,0.4,0.1c1.2,0,2.1-0.8,2.7-1.9c0-0.1,0.1-0.1,0.1-0.2
						c0.6,1.7,1.6,3.3,2.9,4.7c1.8,1.9,4.1,3.2,6.7,3.2c2.6,0,4.9-1.3,6.6-3.2c1.3-1.4,2.4-3.1,3.1-4.9c0.2,0.3,0.4,0.6,0.6,0.9
						c0.6,0.8,1.4,1.3,2.4,1.3c0.1,0,0.3,0,0.4-0.1c2.2-1.5,3-3.9,3-6c0-2.1-0.6-4.1-1.4-5.2c-0.4-0.8-1.4-1.7-2.8-2.7
						c-1.5-1-3.4-1.9-5.8-2.2C28.9,13.5,26.8,12.9,24.8,12.9L24.8,12.9z M24.8,14.4c1.8,0,3.6,0.5,5.3,1.5c1.8,3.1,2.6,7.5,3.7,10.7
						c-0.6,2.1-1.7,4.3-3.3,6c-1.4,1.4-3,2.4-4.8,2.7v-2.8c0.5-0.2,1-0.5,1.4-0.8c0.5-0.5,0.8-1.2,0.8-2c0-0.3-0.1-0.5-0.4-0.7
						c-0.7-0.5-1.7-0.7-2.6-0.7c-0.9,0-1.8,0.2-2.6,0.7C22.1,29,22,29.2,22,29.4c0,0.8,0.2,1.5,0.7,2.1c0.4,0.4,0.9,0.7,1.5,0.9v2.8
						c-1.9-0.2-3.6-1.2-5-2.7c-1.6-1.6-2.7-3.8-3.1-5.9c0.2-0.5,0.3-1,0.4-1.6c0.8-3,1.6-6.6,3.1-9.2C21.2,14.9,23,14.4,24.8,14.4
						L24.8,14.4z M17.7,16.4c-1.3,2.7-1.9,5.8-2.6,8.3c-0.4,1.5-0.8,2.8-1.3,3.6c-0.4,0.7-0.8,1.1-1.2,1.1c-1.6-1.2-2.2-2.9-2.2-4.6
						c0-1.8,0.7-3.7,1.2-4.4c0,0,0,0,0-0.1c0.2-0.3,1-1.3,2.3-2.2C15,17.4,16.2,16.8,17.7,16.4L17.7,16.4z M32,16.4
						c1.5,0.4,2.9,1.1,3.9,1.7c1.3,0.9,2.2,1.9,2.4,2.2c0,0,0,0,0,0.1c0.5,0.8,1.2,2.6,1.2,4.4c0,1.8-0.5,3.5-2.2,4.6
						c-0.4,0-0.7-0.3-1-0.7c-0.4-0.5-0.8-1.4-1.1-2.5C34.3,23.6,33.6,19.7,32,16.4L32,16.4z M24.9,29.6c0.5,0,1,0.1,1.4,0.3
						c-0.1,0.2-0.2,0.4-0.3,0.5c-0.2,0.2-0.6,0.4-1.2,0.6c-0.5-0.2-0.9-0.4-1.1-0.6c-0.1-0.2-0.2-0.3-0.3-0.6
						C23.9,29.7,24.4,29.6,24.9,29.6z"/>
				</g>
			</g>
		</g>
	</g>
</g>
</svg>
