<?xml version="1.0" encoding="UTF-8"?>
<svg width="58px" height="58px" viewBox="0 0 58 58" version="1.1" xmlns="http://www.w3.org/2000/svg" xmlns:xlink="http://www.w3.org/1999/xlink">
    <!-- Generator: Sketch 43.1 (39012) - http://www.bohemiancoding.com/sketch -->
    <title>e-mail-icon</title>
    <desc>Created with Sketch.</desc>
    <defs></defs>
    <g id="Page-1" stroke="none" stroke-width="1" fill="none" fill-rule="evenodd">
        <g id="Home-Page" transform="translate(-250.000000, -3257.000000)" fill-rule="nonzero" fill="#002948">
            <g id="Group-4" transform="translate(250.000000, 3241.000000)">
                <g id="e-mail-icon" transform="translate(0.000000, 16.000000)">
                    <path d="M50.75,32.8553244 L48.3333333,32.8553244 L48.3333333,11.3463467 L38.7923333,2.40592593 L12.0736667,2.40592593 C10.7469167,2.40592593 9.66666667,3.48137481 9.66666667,4.80222815 L9.66666667,31.277037 L7.25,31.277037 L7.25,4.80222815 C7.25,2.1533037 9.41291667,0 12.0736667,0 L39.2708333,0 L40.09975,0.327205926 L50.3705833,9.95090963 L50.75,10.8266667 L50.75,32.8553244 Z" id="Shape"></path>
                    <path d="M52.345,57.74944 L5.655,57.74944 C2.5375,57.74944 0,55.2232178 0,52.1195733 L0,26.6408178 L0.437416667,25.7145363 L7.4095,19.9595615 L8.95133333,21.8121244 L2.41666667,27.2062104 L2.41666667,52.1195733 C2.41666667,53.8975526 3.86908333,55.3435141 5.655,55.3435141 L52.345,55.3435141 C54.1309167,55.3435141 55.5833333,53.8975526 55.5833333,52.1195733 L55.5833333,28.5920237 C55.5833333,27.608 55.1386667,26.6889363 54.36775,26.0754252 L49.0510833,21.8409956 L50.5615,19.9619674 L55.8781667,24.196397 C57.2266667,25.26944 58,26.8717867 58,28.5920237 L58,52.1195733 C58,55.2232178 55.4625,57.74944 52.345,57.74944 Z" id="Shape"></path>
                    <path d="M3.7265,55.9089067 L2.31758333,53.9552948 L26.0081667,37.0512593 C27.7771667,35.7953659 30.2566667,35.7977719 32.0208333,37.0536652 L55.6824167,53.9552948 L54.2759167,55.9089067 L30.6119167,39.007277 C29.6790833,38.3408356 28.3499167,38.3408356 27.4146667,39.007277 L3.7265,55.9089067 Z" id="Shape"></path>
                    <rect id="Rectangle-path" x="16.9166667" y="12.0296296" width="12.0833333" height="2.40592593"></rect>
                    <rect id="Rectangle-path" x="16.9166667" y="19.2474074" width="24.1666667" height="2.40592593"></rect>
                    <rect id="Rectangle-path" x="16.9166667" y="26.4651852" width="24.1666667" height="2.40592593"></rect>
                    <rect id="Rectangle-path" transform="translate(11.806485, 34.415041) rotate(-53.138124) translate(-11.806485, -34.415041) " x="10.598127" y="22.355096" width="2.41671502" height="24.11989"></rect>
                    <rect id="Rectangle-path" transform="translate(46.634015, 34.542495) rotate(-36.825209) translate(-46.634015, -34.542495) " x="34.3085181" y="33.3394832" width="24.6509935" height="2.40602289"></rect>
                    <polygon id="Shape" points="49.5416667 12.0296296 39.875 12.0296296 38.6666667 10.8266667 38.6666667 1.20296296 41.0833333 1.20296296 41.0833333 9.6237037 49.5416667 9.6237037"></polygon>
                </g>
            </g>
        </g>
    </g>
</svg>