<?xml version="1.0" encoding="UTF-8"?>
<svg width="35px" height="78px" viewBox="0 0 35 78" version="1.1" xmlns="http://www.w3.org/2000/svg" xmlns:xlink="http://www.w3.org/1999/xlink">
    <!-- Generator: Sketch 43.1 (39012) - http://www.bohemiancoding.com/sketch -->
    <title>scroll-down-icon copy</title>
    <desc>Created with Sketch.</desc>
    <defs></defs>
    <g id="Page-1" stroke="none" stroke-width="1" fill="none" fill-rule="evenodd">
        <g id="Home-Page" transform="translate(-759.000000, -642.000000)" fill-rule="nonzero" fill="#FFFFFF">
            <g id="scroll-down-icon-copy" transform="translate(759.000000, 642.000000)">
                <path d="M3.18181818,17.3089813 L3.18181818,17.3089813 L3.18181818,37.75415 C3.18181818,45.5798984 9.59009625,51.9166667 17.5,51.9166667 C25.4089039,51.9166667 31.8181818,45.5768164 31.8181818,37.75415 L31.8181818,17.3089813 C31.8181818,9.48323292 25.4099037,3.14646465 17.5,3.14646465 C9.59109614,3.14646465 3.18181818,9.48631489 3.18181818,17.3089813 L3.18181818,17.3089813 Z M0,17.3089813 C0,7.74949488 7.83289182,0 17.5,0 C27.1649831,0 35,7.74332261 35,17.3089813 L35,37.75415 C35,47.3136364 27.1671082,55.0631313 17.5,55.0631313 C7.83501688,55.0631313 0,47.3198087 0,37.75415 L0,17.3089813 L0,17.3089813 Z" id="Shape"></path>
                <path d="M15.9090909,12.5925686 C15.9090909,11.7199905 16.6152395,11.0126263 17.5,11.0126263 C18.3786348,11.0126263 19.0909091,11.722115 19.0909091,12.5925686 L19.0909091,18.8720779 C19.0909091,19.7446559 18.3847605,20.4520202 17.5,20.4520202 C16.6213652,20.4520202 15.9090909,19.7425314 15.9090909,18.8720779 L15.9090909,12.5925686 Z" id="Shape"></path>
                <path d="M17.5,74.0768812 L24.3296028,67.3231628 C24.9508915,66.7087774 25.9581994,66.7087774 26.5794881,67.3231628 C27.2007767,67.9375482 27.2007767,68.9336639 26.5794881,69.5480493 L18.6249426,77.414211 C18.3142983,77.7214037 17.9071491,77.875 17.5,77.875 C17.0928509,77.875 16.6857017,77.7214037 16.3750574,77.414211 L8.42051191,69.5480493 C7.79922333,68.9336639 7.79922333,67.9375482 8.42051191,67.3231628 C9.04180057,66.7087774 10.0491085,66.7087774 10.6703972,67.3231628 L17.5,74.0768812 Z" id="Shape"></path>
                <path d="M17.5,63.8508711 L24.3296028,57.0971527 C24.9508915,56.4827673 25.9581994,56.4827673 26.5794881,57.0971527 C27.2007767,57.7115381 27.2007767,58.7076538 26.5794881,59.3220392 L18.6249426,67.1882008 C18.3142983,67.4953936 17.9071491,67.6489899 17.5,67.6489899 C17.0928509,67.6489899 16.6857017,67.4953936 16.3750574,67.1882008 L8.42051191,59.3220392 C7.79922333,58.7076538 7.79922333,57.7115381 8.42051191,57.0971527 C9.04180057,56.4827673 10.0491085,56.4827673 10.6703972,57.0971527 L17.5,63.8508711 Z" id="Shape"></path>
            </g>
        </g>
    </g>
</svg>