<?xml version="1.0" encoding="UTF-8" standalone="no"?>
<svg width="139px" height="139px" viewBox="0 0 139 139" version="1.1" xmlns="http://www.w3.org/2000/svg" xmlns:xlink="http://www.w3.org/1999/xlink">
    <!-- Generator: Sketch 45.2 (43514) - http://www.bohemiancoding.com/sketch -->
    <title>Page-1</title>
    <desc>Created with Sketch.</desc>
    <defs></defs>
    <g id="Page-1" stroke="none" stroke-width="1" fill="none" fill-rule="evenodd">
        <g id="Home-Page" transform="translate(-274.000000, -3588.000000)" fill-rule="nonzero" fill="#FF5462">
            <g id="Group-23" transform="translate(274.000000, 3588.000000)">
                <path d="M69.2402642,126.939978 C37.3742377,126.939978 11.5402467,101.105987 11.5402467,69.2399602 C11.5402467,37.3739337 37.3742377,11.5399427 69.2402642,11.5399427 C70.0386174,11.5399427 70.8363625,11.5569677 71.6338036,11.5910178 C70.0750996,15.1598936 69.2402642,19.0552855 69.2402642,23.0798854 C69.2402642,39.0125946 82.1574117,51.9297421 98.090425,51.9297421 C98.090425,67.4587145 110.361229,80.1232225 125.734543,80.7552774 C120.382598,107.231052 97.0059902,126.939978 69.2402642,126.939978 M126.940282,69.2399602 C117.381021,69.2399602 109.630368,61.4890029 109.630368,51.9297421 C109.630368,50.3160108 109.93165,48.6360033 110.539688,46.7325421 C111.965536,42.266811 107.753356,38.0543276 103.287625,39.4804794 C101.384164,40.0885169 99.704156,40.3897994 98.090425,40.3897994 C88.5308603,40.3897994 80.7802069,32.6391461 80.7802069,23.0798854 C80.7802069,18.5168684 82.5641888,14.2466214 85.7104786,11.0240229 C88.9124038,7.744877 87.1971301,2.22146481 82.7009972,1.33281808 C78.2446908,0.45177182 73.7537262,0 69.2399602,0 C31.0007892,0 0,31.0004852 0,69.2399602 C0,107.479435 31.0007892,138.47992 69.2399602,138.47992 C105.419404,138.47992 135.38349,110.607484 138.208128,74.724154 C138.517011,70.8010964 134.894628,67.726555 131.074024,68.6696211 C129.522921,69.0520766 128.194663,69.2399602 126.940282,69.2399602" id="Page-1"></path>
            </g>
        </g>
    </g>
</svg>