<?xml version="1.0" encoding="UTF-8" standalone="no"?>
<svg width="167px" height="149px" viewBox="0 0 167 149" version="1.1" xmlns="http://www.w3.org/2000/svg" xmlns:xlink="http://www.w3.org/1999/xlink">
    <!-- Generator: Sketch 45.2 (43514) - http://www.bohemiancoding.com/sketch -->
    <title>Fill-1</title>
    <desc>Created with Sketch.</desc>
    <defs></defs>
    <g id="Page-1" stroke="none" stroke-width="1" fill="none" fill-rule="evenodd">
        <g id="Home-Page" transform="translate(-518.000000, -3583.000000)" fill-rule="nonzero" fill="#00CCCC">
            <g id="Group-24" transform="translate(518.333333, 3583.000000)">
                <path d="M142.210345,36.0509263 C135.426301,36.0509263 129.911771,30.5565032 129.911771,23.7987525 C129.911771,17.0410019 135.426301,11.5465788 142.210345,11.5465788 C148.991296,11.5465788 154.505826,17.0410019 154.505826,23.7987525 C154.505826,30.5565032 148.991296,36.0509263 142.210345,36.0509263 M11.586792,23.7987525 C11.586792,17.0410019 17.101322,11.5465788 23.882273,11.5465788 C30.666317,11.5465788 36.180847,17.0410019 36.180847,23.7987525 C36.180847,30.5565032 30.666317,36.0509263 23.882273,36.0509263 C17.101322,36.0509263 11.586792,30.5565032 11.586792,23.7987525 M166.095712,23.7987525 C166.095712,10.6733237 155.384959,0 142.210345,0 C129.038825,0 118.324979,10.6733237 118.324979,23.7987525 C118.324979,34.9339146 126.03734,44.3009131 136.418341,46.886342 L136.418341,84.0849043 C136.418341,113.409323 112.478222,137.269015 83.049248,137.269015 C53.61749,137.269015 29.677371,113.409323 29.677371,84.0849043 L29.677371,46.8860327 C40.0593,44.2996757 47.770733,34.933296 47.770733,23.7987525 C47.770733,10.6733237 37.057196,0 23.882273,0 C10.710753,0 0,10.6733237 0,23.7987525 C0,34.9348426 7.711433,44.3024598 18.093053,46.8869607 L18.093053,84.0849043 C18.093053,119.774217 47.226921,148.8125 83.049248,148.8125 C118.865698,148.8125 148.005133,119.777001 148.008227,84.0849043 L148.008227,46.8851047 C158.386444,44.2975104 166.095712,34.9320586 166.095712,23.7987525" id="Fill-1"></path>
            </g>
        </g>
    </g>
</svg>