<?xml version="1.0" encoding="UTF-8" standalone="no"?>
<svg width="176px" height="134px" viewBox="0 0 176 134" version="1.1" xmlns="http://www.w3.org/2000/svg" xmlns:xlink="http://www.w3.org/1999/xlink">
    <!-- Generator: Sketch 45.2 (43514) - http://www.bohemiancoding.com/sketch -->
    <title>Page-1</title>
    <desc>Created with Sketch.</desc>
    <defs>
        <polygon id="path-1" points="174.414274 18.847947 174.414274 37.3783996 0 37.3783996 0 18.847947 0 0.317494347 174.414274 0.317494347"></polygon>
        <polygon id="path-3" points="174.413978 0.18948258 7.40166329e-05 0.18948258 7.40166329e-05 37.2616624 174.413978 37.2616624"></polygon>
    </defs>
    <g id="Page-1" stroke="none" stroke-width="1" fill="none" fill-rule="evenodd">
        <g id="Home-Page" transform="translate(-767.000000, -3589.000000)">
            <g id="Page-1" transform="translate(767.666667, 3589.000000)">
                <g id="Group-3" transform="translate(0.000000, 96.402223)">
                    <g id="Fill-1-Clipped">
                        <mask id="mask-2" fill="white">
                            <use xlink:href="#path-1"></use>
                        </mask>
                        <g id="path-1"></g>
                        <path d="M168.886712,0.317494347 L162.607881,0.317494347 C152.58899,0.336738671 143.597079,6.47160729 139.924744,15.793262 C136.998496,24.0964479 127.89519,28.4549174 119.592375,25.5286698 C115.041092,23.9243593 111.461277,20.3449149 109.857337,15.793262 C104.967058,3.28445108 90.8620784,-2.89260702 78.3525273,1.99767191 C72.0300265,4.46945737 67.0287226,9.47076126 64.5569372,15.793262 C61.6284691,24.1086607 52.5136908,28.4752719 44.1982922,25.5468038 C39.6381274,23.9406429 36.0512814,20.354167 34.4451205,15.793262 C30.8042423,6.46605604 21.8186231,0.324155844 11.806023,0.317494347 L5.52719206,0.317494347 C2.47474612,0.317494347 0,2.79224047 0,5.84468641 C0,8.89713235 2.47474612,11.3715084 5.52719206,11.3715084 L11.7397781,11.3715084 C17.3798456,11.3500436 22.4174176,14.8972907 24.2974401,20.2153858 C24.2974401,20.3256706 24.2974401,20.4363254 24.4521349,20.5469803 C30.0848006,34.3503422 45.8414614,40.9740906 59.6448233,35.3414249 C66.4795192,32.5524782 71.8734813,27.0859797 74.5717577,20.2153858 C76.9143841,13.2737359 84.4407654,9.54551806 91.3824153,11.8881445 C95.305667,13.2123021 98.3854991,16.2921341 99.7092865,20.2153858 C105.131005,34.0901737 120.77368,40.9426336 134.648098,35.5216554 C141.478353,32.8526156 146.927827,27.5178668 149.7412,20.745715 C149.83076,20.5806579 149.912178,20.4111598 149.984344,20.2372207 C151.866957,14.912094 156.915262,11.3629965 162.563841,11.3940835 L168.886712,11.3940835 C171.939528,11.3940835 174.414274,8.91933734 174.414274,5.8668914 C174.414274,2.81407538 171.939528,0.339699337 168.887082,0.339699337 L168.887082,0.317494347 L168.886712,0.317494347 Z" id="Fill-1" fill="#FF9922" fill-rule="nonzero" mask="url(#mask-2)"></path>
                    </g>
                </g>
                <path d="M5.46102119,59.5906431 L11.7398522,59.5906431 C17.3799196,59.5688082 22.4171215,63.1160554 24.297144,68.4341504 C24.297144,68.5444352 24.297144,68.6550901 24.4518388,68.765745 C30.0848746,82.5694769 45.8411654,89.1928553 59.6448973,83.5605596 C66.4795932,80.7712428 71.8735553,75.3051145 74.5718317,68.4341504 C76.9144581,61.4928706 84.4408394,57.7642827 91.3824894,60.1072792 C95.305741,61.4310667 98.3855731,64.5108988 99.7093606,68.4341504 C105.130709,82.3093084 120.773754,89.1617683 134.648172,83.7407901 C141.478427,81.0717503 146.927901,75.7370015 149.740904,68.9648497 C149.831204,68.7997926 149.912252,68.6302945 149.984418,68.4563554 C151.867031,63.1304886 156.915336,59.5817611 162.563915,59.6132182 L168.886786,59.6132182 C171.939602,59.6132182 174.413978,57.1384721 174.413978,54.0856561 C174.413978,51.0332101 171.939602,48.558464 168.886786,48.558464 L162.607955,48.558464 C152.589064,48.5777083 143.597153,54.7122069 139.924818,64.0346018 C136.99857,72.3374176 127.895264,76.6962571 119.592449,73.7696394 C115.041166,72.165699 111.461351,68.5858845 109.857411,64.0346018 C104.967132,51.5254207 90.8621524,45.3487327 78.3526013,50.2386416 C72.0301005,52.710427 67.0284265,57.712101 64.5570112,64.0346018 C61.6285431,72.3500004 52.5137648,76.7162416 44.1983662,73.7877735 C39.6382014,72.1816126 36.0513554,68.5951366 34.4448244,64.0346018 C30.8039462,54.7073958 21.8186971,48.5651255 11.8060971,48.558464 L5.52726608,48.558464 C2.47482014,48.558464 7.40166329e-05,51.0332101 7.40166329e-05,54.0856561 C7.40166329e-05,57.1384721 2.47482014,59.6132182 5.52726608,59.6132182 L5.46102119,59.5906431 Z" id="Fill-4" fill="#FF9922" fill-rule="nonzero"></path>
                <g id="Group-8" transform="translate(0.000000, 0.180601)">
                    <g id="Fill-6-Clipped">
                        <mask id="mask-4" fill="white">
                            <use xlink:href="#path-3"></use>
                        </mask>
                        <g id="path-3"></g>
                        <path d="M5.46102119,11.1771407 L11.7398522,11.1771407 C17.3799196,11.1553058 22.4171215,14.7025529 24.297144,20.020648 C24.297144,20.1309328 24.297144,20.2415877 24.4518388,20.3522425 C30.0848746,34.1556044 45.8411654,40.7793529 59.6448973,35.1466871 C66.4795932,32.3573703 71.8735553,26.891242 74.5718317,20.020648 C76.9144581,13.0789981 84.4408394,9.3507803 91.3824894,11.6934067 C95.305741,13.0175643 98.3855731,16.0973964 99.7093606,20.020648 C105.087779,33.9120897 120.70899,40.8134005 134.600801,35.4349819 C141.478057,32.7726036 146.96528,27.4097285 149.785314,20.5950171 C149.875244,20.4303301 149.955922,20.2604619 150.028458,20.0868929 C151.911071,14.7613962 156.959746,11.2122986 162.608325,11.2433856 L168.886786,11.2433856 C171.939602,11.2433856 174.413978,8.76863948 174.413978,5.71619354 C174.413978,2.66374759 171.939602,0.189371555 168.886786,0.189371555 L162.607955,0.189371555 C152.589064,0.208245797 143.597153,6.34274433 139.924818,15.6651393 C136.99857,23.9683251 127.895264,28.3267946 119.592449,25.4001769 C115.041166,23.7962365 111.461351,20.216422 109.857411,15.6651393 C104.967132,3.15558812 90.8621524,-3.02072981 78.3526013,1.86954912 C72.0301005,4.3409645 67.0284265,9.34263847 64.5570112,15.6651393 C61.6285431,23.9805379 52.5137648,28.3471491 44.1983662,25.418311 C39.6382014,23.8125201 36.0513554,20.2256741 34.4448244,15.6651393 C30.8039462,6.33793325 21.8186971,0.195292886 11.8060971,0.189371555 L5.52726608,0.189371555 C2.47482014,0.189371555 7.40166329e-05,2.66374759 7.40166329e-05,5.71619354 C7.40166329e-05,8.76863948 2.47482014,11.2433856 5.52726608,11.2433856 L5.46102119,11.1771407 Z" id="Fill-6" fill="#FF9922" fill-rule="nonzero" mask="url(#mask-4)"></path>
                    </g>
                </g>
            </g>
        </g>
    </g>
</svg>