<?xml version="1.0" encoding="UTF-8"?>
<svg width="101px" height="50px" viewBox="0 0 101 50" version="1.1" xmlns="http://www.w3.org/2000/svg" xmlns:xlink="http://www.w3.org/1999/xlink">
    <!-- Generator: Sketch 45.2 (43514) - http://www.bohemiancoding.com/sketch -->
    <title>ZU (logo)</title>
    <desc>Created with Sketch.</desc>
    <defs></defs>
    <g id="Page-1" stroke="none" stroke-width="1" fill="none" fill-rule="evenodd">
        <g id="Desktop-HD" transform="translate(-250.000000, -29.000000)" fill-rule="nonzero" fill="#FFFFFF">
            <g id="ZU-(logo)" transform="translate(250.000000, 29.000000)">
                <path d="M54.9342482,0 L58.0792619,0 C58.609067,0.116026649 59.1539021,0.0823414926 59.6837073,0.175911371 C62.1598888,0.606332809 64.275352,1.63934426 65.620531,3.86256456 C66.2367583,4.88434763 66.4659648,6.05209971 66.6312941,7.21610899 C66.99577,9.77243806 66.9168628,12.3399955 66.7891084,14.9112958 C66.7102012,16.5468972 66.5824468,18.1787559 66.5185696,19.8181002 C66.4584498,21.3825885 66.3757852,22.9470769 66.4396624,24.5078224 C66.5185696,26.4578187 66.5523869,28.4190433 66.9920125,30.3390972 C67.1498268,31.0352571 67.3452159,31.712703 67.7096918,32.3302642 C68.3935538,33.4942735 69.7875801,33.5017591 70.4639271,32.3377498 C71.0012473,31.4132794 71.1477891,30.3690396 71.2830585,29.3360281 C71.6249895,26.6861292 71.5911722,24.0175163 71.5085075,21.356389 C71.388268,17.5050528 70.9636724,13.664945 71.0876694,9.80612321 C71.1402741,8.21917808 71.3319058,6.65468972 71.7940763,5.12388652 C72.3163664,3.39097238 73.4924588,2.21947751 75.017997,1.35114904 C76.5435353,0.48282057 78.1930705,0.0673703121 79.9515727,0.0598847219 C80.0455098,0.0598847219 80.1394469,0.0673703121 80.218354,0.00374279512 L83.2506431,0.00374279512 C83.8180231,0.112283854 84.3966756,0.104798263 84.967813,0.164682985 C87.1621834,0.404221873 88.8380209,1.52331761 90.2470772,3.1476907 C91.5659539,4.66726551 92.0506693,6.51246351 92.3625404,8.42128902 C92.7570761,10.8503631 92.9449503,13.2944083 93.0802197,15.7534247 C93.2042167,17.9541882 93.2192466,20.1549517 93.1478544,22.3482297 C92.9862826,27.2213489 92.43769,32.0458118 90.7881548,36.683135 C89.841269,39.3442623 88.590027,41.8294783 86.5872884,43.8730444 C84.52443,45.9764952 82.0144311,47.3201587 79.200076,48.1585448 C76.7764992,48.8809043 74.3003177,49.1503855 71.7790463,49.1391571 C69.8702448,49.1279287 67.9614432,49.1354143 66.0488841,49.1391571 C62.8550233,49.1428999 59.7550994,48.6338798 56.805475,47.3725578 C53.4049525,45.9166105 50.7897441,43.5923348 49.0349993,40.3323602 C47.2051049,36.9339022 46.2394317,33.2771914 45.6870816,29.4894827 C45.3864829,27.4421738 45.2286686,25.3873793 45.1009142,23.3213564 C44.9844322,21.4574444 44.9769172,19.5935325 45.037037,17.7333633 C45.1497615,14.2937346 45.3376357,10.8541058 46.0290126,7.46313347 C46.3934885,5.67033461 47.066078,4.03099034 48.3511373,2.69855528 C49.8278283,1.16775208 51.590088,0.194625346 53.7769434,0.116026649 C54.1602067,0.093569878 54.5547424,0.104798263 54.9342482,0 Z" id="Shape"></path>
                <path d="M0,11.2510075 L0,7.11147614 C0.195389137,6.51262892 0.108967019,5.85763977 0.402050724,5.27002094 C1.22493959,3.6157055 2.57387613,2.5415233 4.23468379,1.83039222 C6.68456296,0.778666795 9.27346903,0.32204579 11.9224948,0.16859119 C13.8425688,0.0563073369 15.7664003,-0.00357738501 17.6939893,0.000165410112 L18.7986894,0.000165410112 L20.9103951,0.000165410112 L24.4724894,0.000165410112 L26.8021291,0.000165410112 L28.0045238,0.000165410112 C30.3041036,0.000165410112 32.6074409,0.00390820523 34.8882333,0.273389454 C36.6204332,0.47550039 38.3150582,0.883465058 39.8593839,1.74430794 C41.6704909,2.75486262 42.549742,4.35303613 42.8315533,6.35543152 C43.2110591,9.06895798 42.5985893,11.6178015 41.5577664,14.0880462 C40.1825275,17.3517636 38.1384565,20.1962879 35.9628736,22.9584707 C34.0240122,25.4212299 31.8521868,27.6893637 29.8870229,30.1296661 C29.5713943,30.5226596 29.2595232,30.9193959 29.0002569,31.3535601 C28.6470534,31.9449218 28.7898378,32.2705449 29.4849722,32.3341724 C30.2101665,32.4015428 30.9391183,32.3716004 31.6718276,32.3229441 C34.2269163,32.1545183 36.7857625,31.9449218 39.3107913,32.5961681 C41.8959399,33.2623856 43.4026907,34.9391578 43.9663132,37.4992297 C44.3833939,39.3968268 44.4810885,41.3056523 43.9512833,43.1957639 C43.4552955,44.9623632 42.3881702,46.3022838 40.7574224,47.1930691 C38.9162556,48.1961382 36.9097594,48.619074 34.8581735,48.8623557 C33.3176053,49.0457527 31.7620072,49.0607238 30.213924,49.0644666 C24.2620703,49.075695 18.3064591,49.094409 12.3546054,49.056981 C10.0775705,49.0420099 7.79302057,49.0270387 5.5460455,48.5292469 C4.14826167,48.2185949 2.7842952,47.8368298 1.70589746,46.8150468 C0.845433764,46.0028602 0.338173506,45.0072767 0.21041907,43.8282963 C0.0713921846,42.5482603 0.0901796015,41.2607388 0.123996952,39.9769601 C0.16532927,38.3750438 0.864221181,36.982724 1.63826276,35.6390605 C3.11119625,33.0902171 4.98993795,30.8482828 6.98891912,28.6961756 C9.76194187,25.7094251 12.7378687,22.9285283 15.5897986,20.0241193 C16.1383912,19.4627 16.6456515,18.8638528 17.092792,18.2200921 C17.2167889,18.0404379 17.4009056,17.8495553 17.2806661,17.6137592 C17.1566692,17.3704776 16.8898879,17.4378479 16.6719538,17.4266195 C15.2102928,17.3704776 13.7636617,17.6100164 12.3095156,17.7073291 C9.71309458,17.8832405 7.12794601,18.0404379 4.55406988,17.4341051 C1.67959508,16.760402 0.17660172,14.5633812 0.0976945683,12.0557085 C0.0939370849,11.7974556 0.101452052,11.516746 0,11.2510075 Z" id="Shape"></path>
                <path d="M98.5183005,5.02019772 C98.5183005,5.44313357 98.514543,5.86981222 98.5183005,6.29274806 C98.522058,6.494859 98.5107856,6.66328478 98.2327318,6.65579919 C97.9584355,6.6483136 98.0147977,6.45743105 98.0110403,6.30023365 C98.0072828,5.66770128 98.0035253,5.03142611 98.0110403,4.39889373 C98.0147977,4.23795354 97.9171032,3.98718627 98.2402468,4.00964304 C98.4807257,4.02461422 98.7738094,3.89735919 98.8902914,4.26415311 C99.0443482,4.74323088 99.2209499,5.21108027 99.4088241,5.73881439 C99.7282102,5.28593618 99.8334197,4.79563002 99.983719,4.33152342 C100.111473,3.93478714 100.378255,4.00964304 100.645036,4.00964304 C101.032057,4.00590025 100.900545,4.30532386 100.904302,4.49620641 C100.919332,5.09131083 100.90806,5.69015805 100.911817,6.28526247 C100.911817,6.48737341 100.911817,6.6520564 100.633764,6.65954199 C100.336922,6.66702758 100.366982,6.47614502 100.366982,6.28900527 C100.366982,5.84735544 100.366982,5.40196283 100.28056,4.93785623 C100.118988,5.40196283 99.9574167,5.86606942 99.7920874,6.32643322 C99.7357251,6.47614502 99.7131802,6.6520564 99.4802163,6.65579919 C99.2359799,6.65954199 99.1758601,6.51357298 99.1119829,6.31894763 C98.9691985,5.8810406 98.8076267,5.45061916 98.6535699,5.01645493 C98.6084801,5.02019772 98.5633903,5.02019772 98.5183005,5.02019772 Z" id="Shape"></path>
                <path d="M96.1616708,4.00334068 C96.4434821,4.00334068 96.7215358,4.01082627 97.0033471,4.00334068 C97.1874638,3.99959788 97.2776434,4.05573981 97.2738859,4.25785074 C97.2701284,4.43376212 97.1761913,4.49738963 97.025892,4.47119007 C96.4134222,4.35516342 96.3683324,4.70324336 96.4059072,5.17109275 C96.4359671,5.54162947 96.4096647,5.91590898 96.4134222,6.29018849 C96.4134222,6.48855664 96.4134222,6.66446801 96.1316109,6.66072521 C95.8234973,6.66072521 95.8873745,6.44364309 95.883617,6.26773172 C95.8761021,5.84105308 95.8610721,5.41063164 95.8873745,4.983953 C95.9099194,4.62464467 95.8460422,4.41130534 95.4139316,4.46744727 C95.2673898,4.48616125 95.0156384,4.58721672 95.0006084,4.26533633 C94.9855785,3.90228521 95.2523598,4.02205465 95.4289616,4.01082627 C95.6769555,3.99211229 95.9174344,4.00334068 96.1616708,4.00334068 Z" id="Shape"></path>
            </g>
        </g>
    </g>
</svg>