<?xml version="1.0" encoding="UTF-8"?>
<svg width="10px" height="16px" viewBox="0 0 10 16" version="1.1" xmlns="http://www.w3.org/2000/svg" xmlns:xlink="http://www.w3.org/1999/xlink">
    <!-- Generator: Sketch 43.1 (39012) - http://www.bohemiancoding.com/sketch -->
    <title>arrow-icon</title>
    <desc>Created with Sketch.</desc>
    <defs></defs>
    <g id="Page-1" stroke="none" stroke-width="1" fill="none" fill-rule="evenodd">
        <g id="Home-Page" transform="translate(-391.000000, -1243.000000)" stroke="#002948" stroke-width="1.54000001" fill="#002948" fill-rule="nonzero">
            <g id="Group-11-Copy" transform="translate(250.000000, 871.000000)">
                <g id="Group-3" transform="translate(0.000000, 351.000000)">
                    <g id="Group" transform="translate(25.000000, 12.000000)">
                        <g id="arrow-icon" transform="translate(116.540322, 10.375000)">
                            <path d="M0.826351992,13.0064 C0.666959203,13.0064 0.507815465,12.9533827 0.386029411,12.8473482 C0.142706357,12.6350617 0.142706357,12.2911012 0.386029411,12.0792494 L6.76074478,6.51830123 L0.386776566,0.956918518 C0.14345351,0.744632099 0.14345351,0.400888889 0.386776566,0.188819754 C0.63009962,-0.0232493828 1.02409867,-0.0234666666 1.26717268,0.188819754 L8.08146347,6.13414321 C8.1982685,6.23604938 8.26376898,6.37402469 8.26376898,6.51830123 C8.26376898,6.66257778 8.19801945,6.80055309 8.08146347,6.90245926 L1.26667457,12.8473482 C1.14513757,12.9533827 0.985744781,13.0064 0.826351992,13.0064 Z" id="Shape"></path>
                        </g>
                    </g>
                </g>
            </g>
        </g>
    </g>
</svg>