<?xml version="1.0" encoding="utf-8"?>
<!-- Generator: Adobe Illustrator 19.0.0, SVG Export Plug-In . SVG Version: 6.00 Build 0)  -->
<svg version="1.1" id="Layer_1" xmlns="http://www.w3.org/2000/svg" xmlns:xlink="http://www.w3.org/1999/xlink" x="0px" y="0px"
	 viewBox="0 0 50 50" style="enable-background:new 0 0 50 50;" xml:space="preserve">
<style type="text/css">
	.st0{fill:#6F6F6F;stroke:#6F6F6F;stroke-width:0.5;}
	.st1{fill:#6F6F6F;}
	.st2{fill:none;}
</style>
<g id="Page-1">
	<g id="Home-Page" transform="translate(-865.000000, -3273.000000)">
		<g id="Group-4" transform="translate(250.000000, 3241.000000)">
			<g id="Group-8" transform="translate(603.000000, 25.000000)">
				<g id="Group-2" transform="translate(12.800000, 7.200000)">
					<g id="cat-icon">
						<path id="Shape" class="st0" d="M24,35h-0.2c-7,0-11.9-3.6-11.9-8.6c0-4.7,0.5-10.1,4.1-14.9c0.2-0.2,0.5-0.3,0.7-0.1l0.8,0.5
							c2,1.4,4.1,2.8,4.4,4.7c1.6-0.2,2.5-0.2,4.1,0c0.3-1.9,2.4-3.2,4.3-4.6c0.3-0.2,0.6-0.4,0.9-0.6c0.2-0.2,0.5-0.1,0.7,0.1
							c3.5,4.7,4,9.9,4,14.8C35.9,31.4,31,35,24,35L24,35z M16.5,12.5c-3.1,4.4-3.6,9.3-3.6,13.9c0,4.5,4.5,7.6,10.9,7.6H24
							c6.4,0,10.9-3.1,10.9-7.6c0-4.6-0.4-9.4-3.5-13.8c-0.2,0.1-0.4,0.2-0.5,0.4c-1.9,1.3-3.9,2.7-3.9,4.3c0,0.1-0.1,0.3-0.2,0.4
							c-0.1,0.1-0.2,0.1-0.4,0.1c-2.1-0.2-2.9-0.2-4.9,0c-0.1,0-0.3,0-0.4-0.1c-0.1-0.1-0.2-0.2-0.2-0.4c0-1.6-2-3.1-4-4.5
							L16.5,12.5L16.5,12.5z"/>
						<g id="Shape_1_" transform="translate(6.000000, 10.000000)">
							<g id="path-26-link">
								<path id="path-26" class="st1" d="M13.6,14.6c-0.9,0-1.5-0.7-1.5-1.5c0-0.8,0.7-1.5,1.5-1.5c0.9,0,1.5,0.7,1.5,1.5
									C15.1,13.9,14.4,14.6,13.6,14.6L13.6,14.6z M13.6,12.5c-0.3,0-0.5,0.2-0.5,0.5c0,0.3,0.2,0.5,0.5,0.5c0.3,0,0.5-0.2,0.5-0.5
									C14.1,12.8,13.9,12.5,13.6,12.5L13.6,12.5z"/>
							</g>
							<path id="XMLID_9_" class="st2" d="M13.6,14.6c-0.9,0-1.5-0.7-1.5-1.5c0-0.8,0.7-1.5,1.5-1.5c0.9,0,1.5,0.7,1.5,1.5
								C15.1,13.9,14.4,14.6,13.6,14.6L13.6,14.6z M13.6,12.5c-0.3,0-0.5,0.2-0.5,0.5c0,0.3,0.2,0.5,0.5,0.5c0.3,0,0.5-0.2,0.5-0.5
								C14.1,12.8,13.9,12.5,13.6,12.5L13.6,12.5z"/>
						</g>
						<g id="Shape_2_" transform="translate(14.000000, 10.000000)">
							<g id="path-27-link">
								<path id="path-27" class="st1" d="M14.1,14.6c-0.9,0-1.5-0.7-1.5-1.5c0-0.8,0.7-1.5,1.5-1.5s1.6,0.7,1.6,1.5
									C15.7,13.9,15,14.6,14.1,14.6L14.1,14.6z M14.1,12.5c-0.3,0-0.5,0.2-0.5,0.5c0,0.3,0.2,0.5,0.5,0.5c0.3,0,0.6-0.2,0.6-0.5
									C14.7,12.8,14.4,12.5,14.1,12.5L14.1,12.5z"/>
							</g>
							<path id="XMLID_4_" class="st2" d="M14.1,14.6c-0.9,0-1.5-0.7-1.5-1.5c0-0.8,0.7-1.5,1.5-1.5s1.6,0.7,1.6,1.5
								C15.7,13.9,15,14.6,14.1,14.6L14.1,14.6z M14.1,12.5c-0.3,0-0.5,0.2-0.5,0.5c0,0.3,0.2,0.5,0.5,0.5c0.3,0,0.6-0.2,0.6-0.5
								C14.7,12.8,14.4,12.5,14.1,12.5L14.1,12.5z"/>
						</g>
						<path id="Shape_3_" class="st1" d="M23.5,28.6c-0.1,0-0.3-0.1-0.4-0.2l-2.3-2.6c-0.1-0.1-0.2-0.4-0.1-0.5
							c0.1-0.2,0.3-0.3,0.5-0.3h4.5c0.2,0,0.4,0.1,0.5,0.3c0.1,0.2,0.1,0.4-0.1,0.5l-2.2,2.6C23.8,28.6,23.6,28.6,23.5,28.6
							C23.5,28.6,23.5,28.6,23.5,28.6L23.5,28.6z M22.3,26l1.2,1.4l1.1-1.4H22.3z"/>
						<path id="Shape_4_" class="st1" d="M23.4,31.5c-0.3,0-0.5-0.2-0.5-0.5v-3c0-0.3,0.2-0.5,0.5-0.5c0.3,0,0.5,0.2,0.5,0.5v3
							C23.9,31.3,23.7,31.5,23.4,31.5z"/>
						<path id="Shape_5_" class="st1" d="M26,27.6c-0.2,0-0.4-0.2-0.5-0.4c-0.1-0.3,0.1-0.5,0.4-0.6l5.3-1c0.3-0.1,0.5,0.1,0.6,0.4
							c0.1,0.3-0.1,0.5-0.4,0.6L26,27.6C26.1,27.6,26.1,27.6,26,27.6L26,27.6z"/>
						<path id="Shape_6_" class="st1" d="M26,29.7c-0.2,0-0.4-0.2-0.5-0.4c-0.1-0.3,0.1-0.5,0.4-0.6l5.3-1c0.3-0.1,0.5,0.1,0.6,0.4
							c0.1,0.3-0.1,0.5-0.4,0.6L26,29.7C26.1,29.6,26.1,29.7,26,29.7L26,29.7z"/>
						<path id="Shape_7_" class="st1" d="M20.8,27.6C20.8,27.6,20.8,27.6,20.8,27.6l-5.4-1c-0.3-0.1-0.5-0.3-0.4-0.6
							s0.3-0.4,0.6-0.4l5.3,1c0.3,0.1,0.5,0.3,0.4,0.6C21.3,27.4,21.1,27.6,20.8,27.6L20.8,27.6z"/>
						<path id="Shape_8_" class="st1" d="M20.8,29.7C20.8,29.7,20.8,29.6,20.8,29.7l-5.4-1c-0.3-0.1-0.5-0.3-0.4-0.6
							c0.1-0.3,0.3-0.5,0.6-0.4l5.3,1c0.3,0.1,0.4,0.3,0.4,0.6C21.3,29.5,21.1,29.7,20.8,29.7z"/>
					</g>
				</g>
			</g>
		</g>
	</g>
</g>
</svg>
