<?xml version="1.0" encoding="UTF-8"?>
<svg width="25px" height="25px" viewBox="0 0 25 25" version="1.1" xmlns="http://www.w3.org/2000/svg" xmlns:xlink="http://www.w3.org/1999/xlink">
    <!-- Generator: Sketch 45.2 (43514) - http://www.bohemiancoding.com/sketch -->
    <title>Shape</title>
    <desc>Created with Sketch.</desc>
    <defs></defs>
    <g id="Page-1" stroke="none" stroke-width="1" fill="none" fill-rule="evenodd">
        <g id="Desktop-HD" transform="translate(-1110.000000, -41.000000)" fill-rule="nonzero" fill="#FFFFFF">
            <path d="M1126.62019,43.8515744 C1124.78121,42.0122888 1122.33648,41 1119.73588,41 C1117.13529,41 1114.69055,42.0125986 1112.85188,43.8515744 C1111.0126,45.69086 1110,48.1355977 1110,50.7361914 C1110,53.3367851 1111.01291,55.7815229 1112.85157,57.6208085 C1114.69055,59.4594744 1117.13498,60.4723828 1119.73588,60.4723828 C1122.33648,60.4723828 1124.78121,59.4597842 1126.6205,57.6208085 C1130.4165,53.8244932 1130.41619,47.6478896 1126.62019,43.8515744 Z M1124.86797,55.8682816 C1123.49687,57.2390699 1121.67432,57.9935613 1119.73588,57.9935613 C1117.79744,57.9935613 1115.9752,57.2387601 1114.60441,55.8682816 C1113.23362,54.4968736 1112.47882,52.6746299 1112.47882,50.7361914 C1112.47882,48.7977529 1113.23393,46.9748895 1114.60441,45.6041012 C1115.97489,44.2333129 1117.79744,43.4788216 1119.73588,43.4788216 C1121.67432,43.4788216 1123.49687,44.2336227 1124.86766,45.6041012 C1127.69693,48.4339859 1127.69693,53.0383969 1124.86797,55.8682816 Z M1134.63701,63.8844807 L1129.43892,58.6863919 C1128.95462,58.2020921 1128.16976,58.2020921 1127.68639,58.6863919 C1127.20209,59.1700719 1127.20209,59.9549288 1127.68639,60.4389187 L1132.88448,65.6370076 C1133.12648,65.8790025 1133.44376,66.0001549 1133.76074,66.0001549 C1134.07772,66.0001549 1134.39532,65.8790025 1134.63701,65.6370076 C1135.121,65.1527078 1135.121,64.3678509 1134.63701,63.8844807 Z" id="Shape"></path>
        </g>
    </g>
</svg>